<svg width="170" height="61" viewBox="0 0 170 61" fill="none" xmlns="http://www.w3.org/2000/svg">
<path d="M165.915 0C165.915 0 156.598 4.79462 145.42 4.79462C134.243 4.79462 124.926 0 124.926 0C122.006 5.34523 121.38 11.272 121.336 17.205C121.187 36.068 131.156 53.341 145.42 60.9876C159.691 53.341 169.647 36.068 169.498 17.205C169.455 11.2658 168.829 5.34523 165.915 0Z" fill="#0095DA"/>
<path d="M163.324 58.0428H163.739C164.031 58.0428 164.254 58.0057 164.372 57.9315C164.496 57.8634 164.551 57.7335 164.551 57.5603C164.551 57.3932 164.502 57.2571 164.378 57.2138C164.266 57.1334 164.074 57.1025 163.789 57.1025H163.312V58.0428H163.324ZM163.014 56.855H164.068C164.334 56.855 164.539 56.9169 164.7 57.0468C164.855 57.152 164.93 57.3128 164.93 57.5355C164.93 57.9253 164.7 58.1666 164.235 58.247C164.415 58.3583 164.551 58.4759 164.632 58.5934C164.713 58.7048 164.849 58.9894 165.035 59.4224H164.651C164.415 58.9151 164.241 58.5996 164.105 58.4821C163.975 58.3583 163.764 58.2841 163.473 58.2841H163.324V59.4224H163.014V56.855ZM166.479 58.1109C166.479 57.4242 166.238 56.8179 165.748 56.3415C165.258 55.8404 164.669 55.5929 163.987 55.5929C163.299 55.5929 162.716 55.8342 162.227 56.3415C161.737 56.8179 161.501 57.4242 161.501 58.1109C161.501 58.7976 161.737 59.3853 162.227 59.8926C162.716 60.3814 163.293 60.6288 163.987 60.6288C164.669 60.6288 165.258 60.3814 165.748 59.8926C166.238 59.3915 166.479 58.7976 166.479 58.1109ZM161.129 58.1109C161.129 57.3252 161.402 56.6385 161.973 56.0693C162.524 55.5187 163.194 55.2403 163.981 55.2403C164.768 55.2403 165.438 55.5187 165.996 56.0693C166.554 56.6385 166.839 57.3252 166.839 58.1109C166.839 58.9028 166.56 59.5895 165.996 60.1463C165.438 60.7031 164.768 61 163.981 61C163.194 61 162.524 60.7093 161.973 60.1463C161.402 59.5895 161.129 58.9028 161.129 58.1109Z" fill="#0095DA"/>
<path d="M8.33588 59.2863C7.85854 59.4966 7.05263 59.8617 5.51521 59.8617C2.53336 59.8617 0.5 58.0366 0.5 55.364C0.5 52.6976 2.52717 50.8725 5.49662 50.8725C6.66828 50.8725 7.72835 51.188 8.22429 51.4231L8.08791 52.6976C7.61676 52.4748 6.66208 52.1593 5.49662 52.1593C3.38886 52.1593 1.95683 53.4585 1.95683 55.364C1.95683 57.2756 3.46325 58.5872 5.66399 58.5872C6.69927 58.5872 7.62296 58.2964 8.1375 58.0057L8.33588 59.2863Z" fill="black"/>
<path d="M19.5442 57.919H15.1303L14.4236 59.7379H12.9791L16.5871 50.9962H18.0687L21.6891 59.7379H20.2447L19.5442 57.919ZM15.496 56.7931H19.135L17.331 52.5119L15.496 56.7931Z" fill="black"/>
<path d="M33.0772 59.7379H26.7291V50.9962H28.0868V58.5068H33.071V59.7379H33.0772Z" fill="black"/>
<path d="M39.5492 59.7379H38.1978V50.9962H39.5492V59.7379Z" fill="black"/>
<path d="M47.0255 59.7379H45.6741V50.9962H51.768V52.2273H47.0255V54.6649H50.7451V55.896H47.0255V59.7379Z" fill="black"/>
<path d="M60.7569 50.8725C63.4226 50.8725 65.3939 52.778 65.3939 55.4135C65.3939 58.0304 63.4226 59.8678 60.7569 59.8678C58.1408 59.8678 56.1632 58.0366 56.1632 55.4135C56.1632 52.7718 58.1346 50.8725 60.7569 50.8725ZM60.7569 58.5872C62.6848 58.5872 63.9743 57.3066 63.9743 55.4011C63.9743 53.5018 62.6848 52.1531 60.7569 52.1531C58.8785 52.1531 57.5952 53.5018 57.5952 55.4011C57.5952 57.3066 58.8785 58.5872 60.7569 58.5872Z" fill="black"/>
<path d="M74.7549 57.0591H72.3434V59.7379H70.9919V50.9962H74.9595C76.6023 50.9962 78.0157 51.9551 78.0157 54.0462C78.0157 55.4444 77.2408 56.4219 76.1745 56.8364L78.5736 59.7255H76.9184L74.7549 57.0591ZM72.3434 52.2273V55.8465H74.7053C75.753 55.8465 76.6023 55.1722 76.6023 54.0648C76.6023 52.8398 75.753 52.2335 74.7053 52.2335H72.3434V52.2273Z" fill="black"/>
<path d="M85.1945 59.7379H83.843V50.9962H85.1945L90.7862 57.6592V50.9962H92.1376V59.7379H90.7676L85.1883 53.143V59.7379H85.1945Z" fill="black"/>
<path d="M99.6201 59.7379H98.2687V50.9962H99.6201V59.7379Z" fill="black"/>
<path d="M111.244 57.919H106.83L106.123 59.7379H104.679L108.287 50.9962H109.768L113.389 59.7379H111.944L111.244 57.919ZM107.196 56.7931H110.835L109.031 52.5119L107.196 56.7931Z" fill="black"/>
<path d="M0.772827 43.8445V2.74066H4.28161V21.2201C6.38937 17.8607 10.5987 15.2376 15.9239 15.2376C24.0263 15.2376 30.1388 21.6284 30.1388 29.8628C30.1388 38.0662 24.0263 44.4322 15.9239 44.4322C10.6297 44.4322 6.41416 41.8648 4.28161 38.5364V43.8507H0.772827V43.8445ZM26.692 29.8628C26.692 23.4101 21.9805 18.4485 15.6945 18.4485C9.08605 18.4485 4.10803 23.4101 4.10803 29.8628C4.10803 36.2535 9.07985 41.2214 15.6945 41.2214C21.9805 41.2152 26.692 36.2535 26.692 29.8628Z" fill="black"/>
<path d="M38.4209 2.74066H41.9297V43.8445H38.4209V2.74066Z" fill="black"/>
<path d="M73.67 15.8192H77.123V32.4611C77.123 39.4396 72.3867 44.4322 64.4578 44.4322C56.529 44.4322 51.7927 39.4396 51.7927 32.6406V15.8253H55.2457V31.9105C55.2457 38.0971 58.9033 41.1657 64.4578 41.1657C70.0124 41.1657 73.67 38.1033 73.67 31.9105V15.8192Z" fill="black"/>
<path d="M111.225 41.6544C107.921 43.6403 104.412 44.426 100.779 44.426C91.3007 44.426 84.7791 38.4683 84.7791 29.8318C84.7791 21.4799 90.7737 15.2376 99.2296 15.2376C109.117 15.2376 114.002 22.9709 112.657 31.1186H88.5544C89.1123 37.5713 94.9335 41.1038 100.37 41.1038C103.619 41.1038 106.687 40.844 110.463 38.5364L111.225 41.6544ZM109.378 28.1367C109.117 22.6182 105.429 18.5598 99.3411 18.5598C93.3712 18.5598 89.0442 22.5873 88.635 28.1367H109.378Z" fill="black"/>
<path d="M0.772827 43.8445V2.74066H4.28161V21.2201C6.38937 17.8607 10.5987 15.2376 15.9239 15.2376C24.0263 15.2376 30.1388 21.6284 30.1388 29.8628C30.1388 38.0662 24.0263 44.4322 15.9239 44.4322C10.6297 44.4322 6.41416 41.8648 4.28161 38.5364V43.8507H0.772827V43.8445ZM26.692 29.8628C26.692 23.4101 21.9805 18.4485 15.6945 18.4485C9.08605 18.4485 4.10803 23.4101 4.10803 29.8628C4.10803 36.2535 9.07985 41.2214 15.6945 41.2214C21.9805 41.2152 26.692 36.2535 26.692 29.8628Z" fill="black"/>
<path d="M38.4209 2.74066H41.9297V43.8445H38.4209V2.74066Z" fill="black"/>
<path d="M73.67 15.8192H77.123V32.4611C77.123 39.4396 72.3867 44.4322 64.4578 44.4322C56.529 44.4322 51.7927 39.4396 51.7927 32.6406V15.8253H55.2457V31.9105C55.2457 38.0971 58.9033 41.1657 64.4578 41.1657C70.0124 41.1657 73.67 38.1033 73.67 31.9105V15.8192Z" fill="black"/>
<path d="M111.225 41.6544C107.921 43.6403 104.412 44.426 100.779 44.426C91.3007 44.426 84.7791 38.4683 84.7791 29.8318C84.7791 21.4799 90.7737 15.2376 99.2296 15.2376C109.117 15.2376 114.002 22.9709 112.657 31.1186H88.5544C89.1123 37.5713 94.9335 41.1038 100.37 41.1038C103.619 41.1038 106.687 40.844 110.463 38.5364L111.225 41.6544ZM109.378 28.1367C109.117 22.6182 105.429 18.5598 99.3411 18.5598C93.3712 18.5598 89.0442 22.5873 88.635 28.1367H109.378Z" fill="black"/>
</svg>
